#tb 0: 1/1000
0,          0,          0,        0,      216, 4c41f93b1b280b37bc77d7047435eaa4
0,         33,         33,        0,      216, c9c80fdba2ebc2b8c3490ae35e34f84f
0,         66,         66,        0,      216, 089d86acb3263fa5ef4f591a7f44556d
0,        100,        100,        0,      216, 938fca6d93b83484144f5054e4838a41
0,        133,        133,        0,      216, e0592e2ac9f5e09525ce0d3904cadf47
0,        166,        166,        0,      216, ea43ff5d1330986e60c08567262ea764
0,        200,        200,        0,      216, 08b40fe109ee90188f1cba9bbb1b376e
0,        233,        233,        0,      216, b067068a2a7e36d5c5b5b405a1e73a18
0,        266,        266,        0,      216, 9cf2d350296288803434b7451bd2be85
0,        300,        300,        0,      216, 3c785e21dc228d6396738fbfcb470289
